# xmcd
#
# Track frame offsets:
#	150
#	11846
#	27099
#	42930
#	53795
#	72696
#	94351
#	116969
#	137790
#	154789
#
# Disc length: 2325 seconds
# Revision: 0
# Processed by: cddbd v1.5.2PL0 Copyright (c) Steve Scherf et al.
# Submitted via: dBpowerAMP V12.0
#
DISCID=9009130a
DTITLE=Dan Dinnen - Back Home
DYEAR=2010
DGENRE=Blues
TTITLE0=Ain't No Good
TTITLE1=Back Home
TTITLE2=Honey Bee
TTITLE3=Fallin' Back To You
TTITLE4=Blues Walked In
TTITLE5=You Don't Know My Mind
TTITLE6=Hard Time Killin' Floor Blues
TTITLE7=Follow Me Down
TTITLE8=Write You A Letter
TTITLE9=I Don't Care What Nobody Say
EXTD=
EXTT0=
EXTT1=
EXTT2=
EXTT3=
EXTT4=
EXTT5=
EXTT6=
EXTT7=
EXTT8=
EXTT9=
PLAYORDER=
